<svg width="357" height="185" viewBox="0 0 357 185" fill="none" xmlns="http://www.w3.org/2000/svg">
<line x1="18" y1="116.5" x2="333" y2="116.5" stroke="#E5E5E5" stroke-dasharray="6 6"/>
<line x1="18" y1="16.5" x2="333" y2="16.5" stroke="#E5E5E5" stroke-dasharray="6 6"/>
<line x1="18" y1="66.5" x2="333" y2="66.5" stroke="#E5E5E5" stroke-dasharray="6 6"/>
<line x1="17" y1="166.5" x2="332" y2="166.5" stroke="#E5E5E5" stroke-dasharray="6 6"/>
<path d="M20.6624 182L23.9152 175.565V175.509H20.1652V174.727H24.8243V175.551L21.5857 182H20.6624ZM27.3083 182.128C26.9627 182.128 26.649 182.063 26.3673 181.933C26.0855 181.8 25.8618 181.609 25.6961 181.361C25.5304 181.11 25.4475 180.807 25.4475 180.452C25.4475 180.139 25.5091 179.886 25.6322 179.692C25.7553 179.495 25.9198 179.341 26.1258 179.23C26.3318 179.119 26.559 179.036 26.8076 178.982C27.0586 178.925 27.3107 178.88 27.564 178.847C27.8954 178.804 28.1641 178.772 28.3701 178.751C28.5784 178.727 28.73 178.688 28.8247 178.634C28.9217 178.579 28.9702 178.484 28.9702 178.349V178.321C28.9702 177.971 28.8744 177.698 28.6826 177.504C28.4932 177.31 28.2056 177.213 27.8197 177.213C27.4196 177.213 27.1059 177.301 26.8786 177.476C26.6514 177.651 26.4916 177.838 26.3992 178.037L25.6038 177.753C25.7458 177.421 25.9352 177.163 26.172 176.979C26.4111 176.792 26.6715 176.661 26.9532 176.588C27.2373 176.512 27.5166 176.474 27.7913 176.474C27.9665 176.474 28.1677 176.496 28.395 176.538C28.6246 176.579 28.846 176.663 29.059 176.79C29.2745 176.918 29.4532 177.111 29.5952 177.369C29.7373 177.627 29.8083 177.973 29.8083 178.406V182H28.9702V181.261H28.9276C28.8708 181.38 28.7761 181.506 28.6435 181.641C28.511 181.776 28.3346 181.891 28.1144 181.986C27.8943 182.08 27.6256 182.128 27.3083 182.128ZM27.4362 181.375C27.7676 181.375 28.047 181.31 28.2742 181.18C28.5039 181.049 28.6767 180.881 28.7927 180.675C28.9111 180.469 28.9702 180.253 28.9702 180.026V179.259C28.9347 179.301 28.8566 179.34 28.7359 179.376C28.6175 179.409 28.4802 179.438 28.3239 179.464C28.1701 179.488 28.0197 179.509 27.8729 179.528C27.7285 179.545 27.6113 179.559 27.5214 179.571C27.3036 179.599 27.1 179.646 26.9106 179.71C26.7236 179.771 26.572 179.865 26.456 179.99C26.3424 180.113 26.2856 180.281 26.2856 180.494C26.2856 180.786 26.3933 181.006 26.6087 181.155C26.8265 181.302 27.1024 181.375 27.4362 181.375ZM31.338 182V176.545H32.1476V177.398H32.2187C32.3323 177.107 32.5158 176.88 32.7691 176.719C33.0224 176.556 33.3266 176.474 33.6817 176.474C34.0416 176.474 34.341 176.556 34.5802 176.719C34.8216 176.88 35.0098 177.107 35.1448 177.398H35.2016C35.3413 177.116 35.5508 176.892 35.8302 176.727C36.1095 176.558 36.4445 176.474 36.8351 176.474C37.3228 176.474 37.7217 176.627 38.0319 176.933C38.342 177.236 38.4971 177.708 38.4971 178.349V182H37.659V178.349C37.659 177.947 37.5489 177.659 37.3287 177.487C37.1086 177.314 36.8493 177.227 36.551 177.227C36.1675 177.227 35.8704 177.343 35.6597 177.575C35.449 177.805 35.3437 178.096 35.3437 178.449V182H34.4914V178.264C34.4914 177.954 34.3908 177.704 34.1895 177.515C33.9883 177.323 33.7291 177.227 33.4118 177.227C33.194 177.227 32.9904 177.285 32.801 177.401C32.614 177.517 32.4625 177.678 32.3465 177.884C32.2329 178.088 32.176 178.323 32.176 178.591V182H31.338Z" fill="#F1EEEE"/>
<path d="M68.4578 174.628C68.7561 174.63 69.0544 174.687 69.3527 174.798C69.651 174.91 69.9233 175.094 70.1695 175.352C70.4157 175.608 70.6134 175.957 70.7625 176.4C70.9117 176.843 70.9862 177.398 70.9862 178.065C70.9862 178.712 70.9247 179.286 70.8016 179.788C70.6808 180.287 70.5057 180.709 70.276 181.052C70.0487 181.395 69.7718 181.656 69.445 181.833C69.1207 182.011 68.7538 182.099 68.3442 182.099C67.937 182.099 67.5736 182.019 67.254 181.858C66.9368 181.695 66.6763 181.469 66.4727 181.18C66.2715 180.888 66.1425 180.551 66.0857 180.168H66.9521C67.0303 180.501 67.1853 180.777 67.4173 180.995C67.6517 181.21 67.9607 181.318 68.3442 181.318C68.9053 181.318 69.348 181.073 69.6723 180.583C69.999 180.093 70.1624 179.401 70.1624 178.506H70.1056C69.973 178.705 69.8155 178.876 69.6333 179.021C69.451 179.165 69.2486 179.276 69.026 179.354C68.8035 179.433 68.5667 179.472 68.3158 179.472C67.8991 179.472 67.5168 179.369 67.1688 179.163C66.8231 178.954 66.5461 178.669 66.3378 178.307C66.1318 177.942 66.0289 177.526 66.0289 177.057C66.0289 176.612 66.1283 176.205 66.3271 175.835C66.5284 175.464 66.8101 175.168 67.1723 174.947C67.5369 174.727 67.9654 174.621 68.4578 174.628ZM68.4578 175.409C68.1595 175.409 67.8908 175.484 67.6517 175.633C67.415 175.78 67.2268 175.978 67.0871 176.229C66.9498 176.478 66.8811 176.754 66.8811 177.057C66.8811 177.36 66.9474 177.636 67.08 177.884C67.2149 178.13 67.3984 178.327 67.6304 178.474C67.8648 178.618 68.1311 178.69 68.4294 178.69C68.6543 178.69 68.8638 178.647 69.058 178.559C69.2521 178.469 69.4214 178.347 69.5658 178.193C69.7126 178.037 69.8274 177.861 69.9102 177.664C69.9931 177.465 70.0345 177.258 70.0345 177.043C70.0345 176.759 69.9659 176.492 69.8286 176.244C69.6936 175.995 69.5066 175.794 69.2675 175.64C69.0307 175.486 68.7609 175.409 68.4578 175.409ZM74.002 182.128C73.6564 182.128 73.3427 182.063 73.061 181.933C72.7793 181.8 72.5555 181.609 72.3898 181.361C72.2241 181.11 72.1412 180.807 72.1412 180.452C72.1412 180.139 72.2028 179.886 72.3259 179.692C72.449 179.495 72.6135 179.341 72.8195 179.23C73.0255 179.119 73.2528 179.036 73.5013 178.982C73.7523 178.925 74.0044 178.88 74.2577 178.847C74.5892 178.804 74.8579 178.772 75.0638 178.751C75.2722 178.727 75.4237 178.688 75.5184 178.634C75.6154 178.579 75.664 178.484 75.664 178.349V178.321C75.664 177.971 75.5681 177.698 75.3763 177.504C75.1869 177.31 74.8993 177.213 74.5134 177.213C74.1133 177.213 73.7996 177.301 73.5724 177.476C73.3451 177.651 73.1853 177.838 73.093 178.037L72.2975 177.753C72.4395 177.421 72.6289 177.163 72.8657 176.979C73.1048 176.792 73.3652 176.661 73.6469 176.588C73.931 176.512 74.2104 176.474 74.485 176.474C74.6602 176.474 74.8614 176.496 75.0887 176.538C75.3183 176.579 75.5397 176.663 75.7528 176.79C75.9682 176.918 76.1469 177.111 76.289 177.369C76.431 177.627 76.502 177.973 76.502 178.406V182H75.664V181.261H75.6214C75.5645 181.38 75.4698 181.506 75.3373 181.641C75.2047 181.776 75.0283 181.891 74.8081 181.986C74.588 182.08 74.3193 182.128 74.002 182.128ZM74.1299 181.375C74.4613 181.375 74.7407 181.31 74.968 181.18C75.1976 181.049 75.3704 180.881 75.4864 180.675C75.6048 180.469 75.664 180.253 75.664 180.026V179.259C75.6285 179.301 75.5503 179.34 75.4296 179.376C75.3112 179.409 75.1739 179.438 75.0177 179.464C74.8638 179.488 74.7135 179.509 74.5667 179.528C74.4223 179.545 74.3051 179.559 74.2151 179.571C73.9973 179.599 73.7937 179.646 73.6043 179.71C73.4173 179.771 73.2658 179.865 73.1498 179.99C73.0361 180.113 72.9793 180.281 72.9793 180.494C72.9793 180.786 73.087 181.006 73.3025 181.155C73.5203 181.302 73.7961 181.375 74.1299 181.375ZM78.0317 182V176.545H78.8414V177.398H78.9124C79.026 177.107 79.2095 176.88 79.4628 176.719C79.7161 176.556 80.0203 176.474 80.3754 176.474C80.7353 176.474 81.0348 176.556 81.2739 176.719C81.5154 176.88 81.7036 177.107 81.8385 177.398H81.8953C82.035 177.116 82.2445 176.892 82.5239 176.727C82.8032 176.558 83.1382 176.474 83.5289 176.474C84.0165 176.474 84.4155 176.627 84.7256 176.933C85.0357 177.236 85.1908 177.708 85.1908 178.349V182H84.3527V178.349C84.3527 177.947 84.2426 177.659 84.0225 177.487C83.8023 177.314 83.5431 177.227 83.2448 177.227C82.8612 177.227 82.5641 177.343 82.3534 177.575C82.1427 177.805 82.0374 178.096 82.0374 178.449V182H81.1851V178.264C81.1851 177.954 81.0845 177.704 80.8833 177.515C80.682 177.323 80.4228 177.227 80.1056 177.227C79.8878 177.227 79.6842 177.285 79.4948 177.401C79.3077 177.517 79.1562 177.678 79.0402 177.884C78.9266 178.088 78.8698 178.323 78.8698 178.591V182H78.0317Z" fill="#F1EEEE"/>
<path d="M114.099 174.727V182H113.219V175.651H113.176L111.401 176.83V175.935L113.219 174.727H114.099ZM118.748 174.727V182H117.867V175.651H117.825L116.049 176.83V175.935L117.867 174.727H118.748ZM122.459 182.128C122.113 182.128 121.8 182.063 121.518 181.933C121.236 181.8 121.012 181.609 120.847 181.361C120.681 181.11 120.598 180.807 120.598 180.452C120.598 180.139 120.66 179.886 120.783 179.692C120.906 179.495 121.07 179.341 121.276 179.23C121.482 179.119 121.71 179.036 121.958 178.982C122.209 178.925 122.461 178.88 122.715 178.847C123.046 178.804 123.315 178.772 123.521 178.751C123.729 178.727 123.88 178.688 123.975 178.634C124.072 178.579 124.121 178.484 124.121 178.349V178.321C124.121 177.971 124.025 177.698 123.833 177.504C123.644 177.31 123.356 177.213 122.97 177.213C122.57 177.213 122.256 177.301 122.029 177.476C121.802 177.651 121.642 177.838 121.55 178.037L120.754 177.753C120.896 177.421 121.086 177.163 121.322 176.979C121.562 176.792 121.822 176.661 122.104 176.588C122.388 176.512 122.667 176.474 122.942 176.474C123.117 176.474 123.318 176.496 123.545 176.538C123.775 176.579 123.996 176.663 124.21 176.79C124.425 176.918 124.604 177.111 124.746 177.369C124.888 177.627 124.959 177.973 124.959 178.406V182H124.121V181.261H124.078C124.021 181.38 123.927 181.506 123.794 181.641C123.661 181.776 123.485 181.891 123.265 181.986C123.045 182.08 122.776 182.128 122.459 182.128ZM122.587 181.375C122.918 181.375 123.197 181.31 123.425 181.18C123.654 181.049 123.827 180.881 123.943 180.675C124.062 180.469 124.121 180.253 124.121 180.026V179.259C124.085 179.301 124.007 179.34 123.886 179.376C123.768 179.409 123.631 179.438 123.474 179.464C123.321 179.488 123.17 179.509 123.023 179.528C122.879 179.545 122.762 179.559 122.672 179.571C122.454 179.599 122.25 179.646 122.061 179.71C121.874 179.771 121.723 179.865 121.607 179.99C121.493 180.113 121.436 180.281 121.436 180.494C121.436 180.786 121.544 181.006 121.759 181.155C121.977 181.302 122.253 181.375 122.587 181.375ZM126.488 182V176.545H127.298V177.398H127.369C127.483 177.107 127.666 176.88 127.92 176.719C128.173 176.556 128.477 176.474 128.832 176.474C129.192 176.474 129.492 176.556 129.731 176.719C129.972 176.88 130.16 177.107 130.295 177.398H130.352C130.492 177.116 130.701 176.892 130.981 176.727C131.26 176.558 131.595 176.474 131.986 176.474C132.473 176.474 132.872 176.627 133.182 176.933C133.493 177.236 133.648 177.708 133.648 178.349V182H132.81V178.349C132.81 177.947 132.699 177.659 132.479 177.487C132.259 177.314 132 177.227 131.702 177.227C131.318 177.227 131.021 177.343 130.81 177.575C130.6 177.805 130.494 178.096 130.494 178.449V182H129.642V178.264C129.642 177.954 129.541 177.704 129.34 177.515C129.139 177.323 128.88 177.227 128.562 177.227C128.345 177.227 128.141 177.285 127.952 177.401C127.765 177.517 127.613 177.678 127.497 177.884C127.383 178.088 127.327 178.323 127.327 178.591V182H126.488Z" fill="#F1EEEE"/>
<path d="M166.499 174.727V182H165.619V175.651H165.576L163.8 176.83V175.935L165.619 174.727H166.499ZM168.605 184.045V176.545H169.415V177.412H169.514C169.576 177.317 169.661 177.196 169.77 177.05C169.881 176.901 170.04 176.768 170.246 176.652C170.454 176.534 170.736 176.474 171.091 176.474C171.55 176.474 171.955 176.589 172.305 176.819C172.656 177.049 172.929 177.374 173.126 177.795C173.322 178.217 173.421 178.714 173.421 179.287C173.421 179.865 173.322 180.365 173.126 180.789C172.929 181.21 172.657 181.537 172.309 181.769C171.961 181.999 171.56 182.114 171.105 182.114C170.755 182.114 170.474 182.056 170.264 181.94C170.053 181.821 169.891 181.687 169.777 181.538C169.663 181.387 169.576 181.261 169.514 181.162H169.443V184.045H168.605ZM169.429 179.273C169.429 179.685 169.489 180.048 169.61 180.363C169.731 180.675 169.907 180.92 170.139 181.098C170.371 181.273 170.655 181.361 170.992 181.361C171.342 181.361 171.634 181.268 171.869 181.084C172.105 180.897 172.283 180.646 172.401 180.331C172.522 180.014 172.582 179.661 172.582 179.273C172.582 178.889 172.523 178.544 172.405 178.236C172.289 177.926 172.113 177.681 171.876 177.501C171.641 177.318 171.347 177.227 170.992 177.227C170.651 177.227 170.364 177.314 170.132 177.487C169.9 177.657 169.725 177.896 169.607 178.204C169.488 178.509 169.429 178.866 169.429 179.273ZM174.699 182V176.545H175.509V177.398H175.58C175.693 177.107 175.877 176.88 176.13 176.719C176.383 176.556 176.688 176.474 177.043 176.474C177.403 176.474 177.702 176.556 177.941 176.719C178.183 176.88 178.371 177.107 178.506 177.398H178.563C178.702 177.116 178.912 176.892 179.191 176.727C179.47 176.558 179.805 176.474 180.196 176.474C180.684 176.474 181.083 176.627 181.393 176.933C181.703 177.236 181.858 177.708 181.858 178.349V182H181.02V178.349C181.02 177.947 180.91 177.659 180.69 177.487C180.47 177.314 180.21 177.227 179.912 177.227C179.528 177.227 179.231 177.343 179.021 177.575C178.81 177.805 178.705 178.096 178.705 178.449V182H177.852V178.264C177.852 177.954 177.752 177.704 177.55 177.515C177.349 177.323 177.09 177.227 176.773 177.227C176.555 177.227 176.351 177.285 176.162 177.401C175.975 177.517 175.823 177.678 175.707 177.884C175.594 178.088 175.537 178.323 175.537 178.591V182H174.699Z" fill="#F1EEEE"/>
<path d="M217.8 182.099C217.331 182.099 216.913 182.019 216.546 181.858C216.182 181.697 215.892 181.473 215.676 181.187C215.463 180.898 215.347 180.563 215.328 180.182H216.223C216.242 180.416 216.323 180.619 216.465 180.789C216.607 180.957 216.793 181.087 217.022 181.18C217.252 181.272 217.506 181.318 217.786 181.318C218.098 181.318 218.375 181.264 218.617 181.155C218.858 181.046 219.048 180.894 219.185 180.7C219.322 180.506 219.391 180.281 219.391 180.026C219.391 179.758 219.325 179.522 219.192 179.319C219.059 179.113 218.865 178.952 218.61 178.836C218.354 178.72 218.041 178.662 217.672 178.662H217.09V177.881H217.672C217.961 177.881 218.214 177.829 218.432 177.724C218.652 177.62 218.824 177.473 218.947 177.284C219.072 177.095 219.135 176.872 219.135 176.616C219.135 176.37 219.081 176.156 218.972 175.974C218.863 175.791 218.709 175.649 218.51 175.548C218.314 175.446 218.082 175.395 217.814 175.395C217.563 175.395 217.326 175.441 217.104 175.533C216.884 175.623 216.704 175.755 216.564 175.928C216.424 176.098 216.349 176.304 216.337 176.545H215.485C215.499 176.164 215.614 175.83 215.829 175.544C216.045 175.255 216.326 175.03 216.674 174.869C217.025 174.708 217.409 174.628 217.828 174.628C218.278 174.628 218.664 174.719 218.986 174.901C219.308 175.081 219.555 175.319 219.728 175.615C219.901 175.911 219.987 176.231 219.987 176.574C219.987 176.983 219.88 177.333 219.664 177.621C219.451 177.91 219.161 178.11 218.794 178.222V178.278C219.254 178.354 219.612 178.549 219.87 178.864C220.128 179.177 220.257 179.564 220.257 180.026C220.257 180.421 220.15 180.776 219.934 181.091C219.721 181.403 219.43 181.65 219.061 181.83C218.691 182.009 218.271 182.099 217.8 182.099ZM221.724 184.045V176.545H222.534V177.412H222.633C222.695 177.317 222.78 177.196 222.889 177.05C223 176.901 223.159 176.768 223.365 176.652C223.573 176.534 223.855 176.474 224.21 176.474C224.669 176.474 225.074 176.589 225.424 176.819C225.775 177.049 226.048 177.374 226.245 177.795C226.441 178.217 226.539 178.714 226.539 179.287C226.539 179.865 226.441 180.365 226.245 180.789C226.048 181.21 225.776 181.537 225.428 181.769C225.08 181.999 224.679 182.114 224.224 182.114C223.874 182.114 223.593 182.056 223.382 181.94C223.172 181.821 223.009 181.687 222.896 181.538C222.782 181.387 222.695 181.261 222.633 181.162H222.562V184.045H221.724ZM222.548 179.273C222.548 179.685 222.608 180.048 222.729 180.363C222.85 180.675 223.026 180.92 223.258 181.098C223.49 181.273 223.774 181.361 224.11 181.361C224.461 181.361 224.753 181.268 224.987 181.084C225.224 180.897 225.402 180.646 225.52 180.331C225.641 180.014 225.701 179.661 225.701 179.273C225.701 178.889 225.642 178.544 225.524 178.236C225.408 177.926 225.231 177.681 224.995 177.501C224.76 177.318 224.465 177.227 224.11 177.227C223.769 177.227 223.483 177.314 223.251 177.487C223.019 177.657 222.844 177.896 222.725 178.204C222.607 178.509 222.548 178.866 222.548 179.273ZM227.818 182V176.545H228.627V177.398H228.698C228.812 177.107 228.995 176.88 229.249 176.719C229.502 176.556 229.806 176.474 230.161 176.474C230.521 176.474 230.821 176.556 231.06 176.719C231.301 176.88 231.49 177.107 231.625 177.398H231.681C231.821 177.116 232.031 176.892 232.31 176.727C232.589 176.558 232.924 176.474 233.315 176.474C233.803 176.474 234.201 176.627 234.512 176.933C234.822 177.236 234.977 177.708 234.977 178.349V182H234.139V178.349C234.139 177.947 234.029 177.659 233.808 177.487C233.588 177.314 233.329 177.227 233.031 177.227C232.647 177.227 232.35 177.343 232.139 177.575C231.929 177.805 231.823 178.096 231.823 178.449V182H230.971V178.264C230.971 177.954 230.87 177.704 230.669 177.515C230.468 177.323 230.209 177.227 229.892 177.227C229.674 177.227 229.47 177.285 229.281 177.401C229.094 177.517 228.942 177.678 228.826 177.884C228.713 178.088 228.656 178.323 228.656 178.591V182H227.818Z" fill="#F1EEEE"/>
<path d="M266.615 182.099C266.199 182.099 265.823 182.017 265.49 181.851C265.156 181.685 264.888 181.458 264.687 181.169C264.486 180.88 264.376 180.551 264.357 180.182H265.209C265.242 180.511 265.391 180.783 265.656 180.999C265.924 181.212 266.244 181.318 266.615 181.318C266.914 181.318 267.179 181.248 267.411 181.109C267.645 180.969 267.829 180.777 267.961 180.533C268.096 180.287 268.164 180.009 268.164 179.699C268.164 179.382 268.094 179.099 267.954 178.85C267.817 178.599 267.627 178.402 267.386 178.257C267.144 178.113 266.869 178.039 266.558 178.037C266.336 178.035 266.107 178.069 265.873 178.14C265.639 178.209 265.446 178.297 265.294 178.406L264.47 178.307L264.911 174.727H268.689V175.509H265.649L265.394 177.653H265.436C265.585 177.535 265.772 177.437 265.997 177.359C266.222 177.281 266.457 177.241 266.701 177.241C267.146 177.241 267.542 177.348 267.89 177.561C268.241 177.772 268.515 178.061 268.714 178.428C268.915 178.795 269.016 179.214 269.016 179.685C269.016 180.149 268.912 180.563 268.703 180.928C268.497 181.29 268.213 181.576 267.851 181.787C267.489 181.995 267.077 182.099 266.615 182.099ZM270.441 184.045V176.545H271.25V177.412H271.35C271.411 177.317 271.497 177.196 271.606 177.05C271.717 176.901 271.875 176.768 272.081 176.652C272.29 176.534 272.571 176.474 272.927 176.474C273.386 176.474 273.791 176.589 274.141 176.819C274.491 177.049 274.765 177.374 274.961 177.795C275.158 178.217 275.256 178.714 275.256 179.287C275.256 179.865 275.158 180.365 274.961 180.789C274.765 181.21 274.493 181.537 274.145 181.769C273.797 181.999 273.395 182.114 272.941 182.114C272.59 182.114 272.31 182.056 272.099 181.94C271.888 181.821 271.726 181.687 271.613 181.538C271.499 181.387 271.411 181.261 271.35 181.162H271.279V184.045H270.441ZM271.265 179.273C271.265 179.685 271.325 180.048 271.446 180.363C271.566 180.675 271.743 180.92 271.975 181.098C272.207 181.273 272.491 181.361 272.827 181.361C273.177 181.361 273.47 181.268 273.704 181.084C273.941 180.897 274.119 180.646 274.237 180.331C274.358 180.014 274.418 179.661 274.418 179.273C274.418 178.889 274.359 178.544 274.24 178.236C274.124 177.926 273.948 177.681 273.711 177.501C273.477 177.318 273.182 177.227 272.827 177.227C272.486 177.227 272.2 177.314 271.968 177.487C271.736 177.657 271.561 177.896 271.442 178.204C271.324 178.509 271.265 178.866 271.265 179.273ZM276.535 182V176.545H277.344V177.398H277.415C277.529 177.107 277.712 176.88 277.966 176.719C278.219 176.556 278.523 176.474 278.878 176.474C279.238 176.474 279.538 176.556 279.777 176.719C280.018 176.88 280.206 177.107 280.341 177.398H280.398C280.538 177.116 280.747 176.892 281.027 176.727C281.306 176.558 281.641 176.474 282.032 176.474C282.519 176.474 282.918 176.627 283.228 176.933C283.539 177.236 283.694 177.708 283.694 178.349V182H282.856V178.349C282.856 177.947 282.745 177.659 282.525 177.487C282.305 177.314 282.046 177.227 281.748 177.227C281.364 177.227 281.067 177.343 280.856 177.575C280.646 177.805 280.54 178.096 280.54 178.449V182H279.688V178.264C279.688 177.954 279.587 177.704 279.386 177.515C279.185 177.323 278.926 177.227 278.608 177.227C278.391 177.227 278.187 177.285 277.998 177.401C277.811 177.517 277.659 177.678 277.543 177.884C277.429 178.088 277.373 178.323 277.373 178.591V182H276.535Z" fill="#F1EEEE"/>
<path d="M312.97 182L316.223 175.565V175.509H312.473V174.727H317.132V175.551L313.893 182H312.97ZM318.47 184.045V176.545H319.279V177.412H319.379C319.44 177.317 319.526 177.196 319.634 177.05C319.746 176.901 319.904 176.768 320.11 176.652C320.319 176.534 320.6 176.474 320.955 176.474C321.415 176.474 321.82 176.589 322.17 176.819C322.52 177.049 322.794 177.374 322.99 177.795C323.187 178.217 323.285 178.714 323.285 179.287C323.285 179.865 323.187 180.365 322.99 180.789C322.794 181.21 322.522 181.537 322.174 181.769C321.826 181.999 321.424 182.114 320.97 182.114C320.619 182.114 320.339 182.056 320.128 181.94C319.917 181.821 319.755 181.687 319.642 181.538C319.528 181.387 319.44 181.261 319.379 181.162H319.308V184.045H318.47ZM319.294 179.273C319.294 179.685 319.354 180.048 319.475 180.363C319.595 180.675 319.772 180.92 320.004 181.098C320.236 181.273 320.52 181.361 320.856 181.361C321.206 181.361 321.499 181.268 321.733 181.084C321.97 180.897 322.147 180.646 322.266 180.331C322.387 180.014 322.447 179.661 322.447 179.273C322.447 178.889 322.388 178.544 322.269 178.236C322.153 177.926 321.977 177.681 321.74 177.501C321.506 177.318 321.211 177.227 320.856 177.227C320.515 177.227 320.229 177.314 319.997 177.487C319.765 177.657 319.589 177.896 319.471 178.204C319.353 178.509 319.294 178.866 319.294 179.273ZM324.563 182V176.545H325.373V177.398H325.444C325.558 177.107 325.741 176.88 325.995 176.719C326.248 176.556 326.552 176.474 326.907 176.474C327.267 176.474 327.567 176.556 327.806 176.719C328.047 176.88 328.235 177.107 328.37 177.398H328.427C328.567 177.116 328.776 176.892 329.056 176.727C329.335 176.558 329.67 176.474 330.061 176.474C330.548 176.474 330.947 176.627 331.257 176.933C331.567 177.236 331.723 177.708 331.723 178.349V182H330.884V178.349C330.884 177.947 330.774 177.659 330.554 177.487C330.334 177.314 330.075 177.227 329.777 177.227C329.393 177.227 329.096 177.343 328.885 177.575C328.674 177.805 328.569 178.096 328.569 178.449V182H327.717V178.264C327.717 177.954 327.616 177.704 327.415 177.515C327.214 177.323 326.955 177.227 326.637 177.227C326.419 177.227 326.216 177.285 326.027 177.401C325.839 177.517 325.688 177.678 325.572 177.884C325.458 178.088 325.402 178.323 325.402 178.591V182H324.563Z" fill="#F1EEEE"/>
<path d="M23 127.5C23 123.358 26.3579 120 30.5 120C34.6421 120 38 123.358 38 127.5V159.5C38 163.642 34.6421 167 30.5 167C26.3579 167 23 163.642 23 159.5V127.5Z" fill="#E2EAFC"/>
<path d="M68 97.5C68 93.3579 71.3579 90 75.5 90C79.6421 90 83 93.3579 83 97.5V159.5C83 163.642 79.6421 167 75.5 167C71.3579 167 68 163.642 68 159.5V97.5Z" fill="#E2EAFC"/>
<path d="M115 86.5C115 82.3579 118.358 79 122.5 79C126.642 79 130 82.3579 130 86.5V159.5C130 163.642 126.642 167 122.5 167C118.358 167 115 163.642 115 159.5V86.5Z" fill="#E2EAFC"/>
<path d="M166 53.5C166 49.3579 169.358 46 173.5 46C177.642 46 181 49.3579 181 53.5V159.5C181 163.642 177.642 167 173.5 167C169.358 167 166 163.642 166 159.5V53.5Z" fill="#E2EAFC"/>
<path d="M266.806 91.5C266.806 87.3579 270.164 84 274.306 84C278.448 84 281.806 87.3579 281.806 91.5V159.5C281.806 163.642 278.448 167 274.306 167C270.164 167 266.806 163.642 266.806 159.5V91.5Z" fill="#E2EAFC"/>
<path d="M217 103.5C217 99.3579 220.358 96 224.5 96C228.642 96 232 99.3579 232 103.5V159.5C232 163.642 228.642 167 224.5 167C220.358 167 217 163.642 217 159.5V103.5Z" fill="#E2EAFC"/>
<path d="M314.31 37.5C314.31 33.3579 317.668 30 321.81 30C325.952 30 329.31 33.3579 329.31 37.5V159.5C329.31 163.642 325.952 167 321.81 167C317.668 167 314.31 163.642 314.31 159.5V37.5Z" fill="#E2EAFC"/>
</svg>
